<svg width="164" height="164" viewBox="0 0 164 164" fill="none" xmlns="http://www.w3.org/2000/svg">
<path d="M68.3333 6.83301H13.6666C9.89264 6.83301 6.83325 9.8924 6.83325 13.6663V68.333C6.83325 72.107 9.89264 75.1663 13.6666 75.1663H68.3333C72.1072 75.1663 75.1666 72.107 75.1666 68.333V13.6663C75.1666 9.8924 72.1072 6.83301 68.3333 6.83301Z" fill="url(#paint0_linear_173_478)"/>
<path d="M68.3333 88.833H13.6666C9.89264 88.833 6.83325 91.8924 6.83325 95.6663V150.333C6.83325 154.107 9.89264 157.166 13.6666 157.166H68.3333C72.1072 157.166 75.1666 154.107 75.1666 150.333V95.6663C75.1666 91.8924 72.1072 88.833 68.3333 88.833Z" fill="url(#paint1_linear_173_478)"/>
<path d="M150.333 88.833H95.6668C91.8929 88.833 88.8335 91.8924 88.8335 95.6663V150.333C88.8335 154.107 91.8929 157.166 95.6668 157.166H150.333C154.107 157.166 157.167 154.107 157.167 150.333V95.6663C157.167 91.8924 154.107 88.833 150.333 88.833Z" fill="url(#paint2_linear_173_478)"/>
<defs>
<linearGradient id="paint0_linear_173_478" x1="40.9999" y1="6.83301" x2="40.9999" y2="75.1663" gradientUnits="userSpaceOnUse">
<stop stop-color="#74DD63"/>
<stop offset="1"/>
</linearGradient>
<linearGradient id="paint1_linear_173_478" x1="40.9999" y1="88.833" x2="40.9999" y2="157.166" gradientUnits="userSpaceOnUse">
<stop stop-color="#74DD63"/>
<stop offset="1"/>
</linearGradient>
<linearGradient id="paint2_linear_173_478" x1="123" y1="88.833" x2="123" y2="157.166" gradientUnits="userSpaceOnUse">
<stop stop-color="#74DD63"/>
<stop offset="1"/>
</linearGradient>
</defs>
</svg>
