<svg width="164" height="164" viewBox="0 0 164 164" fill="none" xmlns="http://www.w3.org/2000/svg">
<path d="M82 6.83301C67.1334 6.83301 52.6007 11.2415 40.2396 19.5009C27.8785 27.7603 18.2442 39.4997 12.555 53.2346C6.86582 66.9695 5.37727 82.0831 8.27759 96.664C11.1779 111.245 18.3368 124.638 28.8491 135.151C39.3613 145.663 52.7548 152.822 67.3357 155.722C81.9166 158.622 97.0301 157.134 110.765 151.445C124.5 145.755 136.239 136.121 144.499 123.76C152.758 111.399 157.167 96.8662 157.167 81.9997C157.167 62.0642 149.247 42.9453 135.151 28.8488C121.054 14.7523 101.935 6.83301 82 6.83301ZM82 143.5C69.8364 143.5 57.946 139.893 47.8324 133.135C37.7188 126.377 29.8362 116.772 25.1814 105.535C20.5266 94.2971 19.3087 81.9315 21.6817 70.0016C24.0546 58.0718 29.912 47.1135 38.5129 38.5126C47.1138 29.9117 58.0721 24.0544 70.0019 21.6814C81.9317 19.3084 94.2973 20.5263 105.535 25.1811C116.773 29.8359 126.378 37.7185 133.135 47.8321C139.893 57.9457 143.5 69.8361 143.5 81.9997C143.5 98.3105 137.021 113.953 125.487 125.487C113.954 137.02 98.3108 143.5 82 143.5Z" fill="url(#paint0_linear_173_474)"/>
<path d="M88.8334 47.8333C88.8334 44.0594 85.774 41 82.0001 41C78.2261 41 75.1667 44.0594 75.1667 47.8333V82C75.1667 85.7739 78.2261 88.8333 82.0001 88.8333C85.774 88.8333 88.8334 85.7739 88.8334 82V47.8333Z" fill="url(#paint1_linear_173_474)"/>
<path d="M88.8334 82.0003C88.8334 78.2264 85.774 75.167 82.0001 75.167C78.2261 75.167 75.1667 78.2264 75.1667 82.0003V129.834C75.1667 133.608 78.2261 136.667 82.0001 136.667C85.774 136.667 88.8334 133.608 88.8334 129.834V82.0003Z" fill="url(#paint2_linear_173_474)"/>
<defs>
<linearGradient id="paint0_linear_173_474" x1="81.9999" y1="6.83301" x2="81.9999" y2="157.166" gradientUnits="userSpaceOnUse">
<stop stop-color="#74DD63"/>
<stop offset="1"/>
</linearGradient>
<linearGradient id="paint1_linear_173_474" x1="82.0001" y1="41" x2="82.0001" y2="88.8333" gradientUnits="userSpaceOnUse">
<stop stop-color="#74DD63"/>
<stop offset="1"/>
</linearGradient>
<linearGradient id="paint2_linear_173_474" x1="82.0001" y1="75.167" x2="82.0001" y2="136.667" gradientUnits="userSpaceOnUse">
<stop stop-color="#74DD63"/>
<stop offset="1"/>
</linearGradient>
</defs>
</svg>
