<svg width="164" height="164" viewBox="0 0 164 164" fill="none" xmlns="http://www.w3.org/2000/svg">
<path d="M81.9999 34.1663C89.5478 34.1663 95.6666 28.0476 95.6666 20.4997C95.6666 12.9518 89.5478 6.83301 81.9999 6.83301C74.452 6.83301 68.3333 12.9518 68.3333 20.4997C68.3333 28.0476 74.452 34.1663 81.9999 34.1663Z" fill="url(#paint0_linear_173_460)"/>
<path d="M112.75 42.4349C120.298 42.4349 126.417 36.3161 126.417 28.7682C126.417 21.2203 120.298 15.1016 112.75 15.1016C105.202 15.1016 99.0833 21.2203 99.0833 28.7682C99.0833 36.3161 105.202 42.4349 112.75 42.4349Z" fill="url(#paint1_linear_173_460)"/>
<path d="M51.2499 42.4349C58.7978 42.4349 64.9166 36.3161 64.9166 28.7682C64.9166 21.2203 58.7978 15.1016 51.2499 15.1016C43.702 15.1016 37.5833 21.2203 37.5833 28.7682C37.5833 36.3161 43.702 42.4349 51.2499 42.4349Z" fill="url(#paint2_linear_173_460)"/>
<path d="M135.232 64.9163C142.78 64.9163 148.898 58.7976 148.898 51.2497C148.898 43.7018 142.78 37.583 135.232 37.583C127.684 37.583 121.565 43.7018 121.565 51.2497C121.565 58.7976 127.684 64.9163 135.232 64.9163Z" fill="url(#paint3_linear_173_460)"/>
<path d="M28.7682 64.9163C36.3161 64.9163 42.4349 58.7976 42.4349 51.2497C42.4349 43.7018 36.3161 37.583 28.7682 37.583C21.2203 37.583 15.1016 43.7018 15.1016 51.2497C15.1016 58.7976 21.2203 64.9163 28.7682 64.9163Z" fill="url(#paint4_linear_173_460)"/>
<path d="M143.5 95.6663C151.048 95.6663 157.167 89.5476 157.167 81.9997C157.167 74.4518 151.048 68.333 143.5 68.333C135.952 68.333 129.833 74.4518 129.833 81.9997C129.833 89.5476 135.952 95.6663 143.5 95.6663Z" fill="url(#paint5_linear_173_460)"/>
<path d="M20.4999 95.6663C28.0478 95.6663 34.1666 89.5476 34.1666 81.9997C34.1666 74.4518 28.0478 68.333 20.4999 68.333C12.952 68.333 6.83325 74.4518 6.83325 81.9997C6.83325 89.5476 12.952 95.6663 20.4999 95.6663Z" fill="url(#paint6_linear_173_460)"/>
<path d="M135.232 126.416C142.78 126.416 148.898 120.298 148.898 112.75C148.898 105.202 142.78 99.083 135.232 99.083C127.684 99.083 121.565 105.202 121.565 112.75C121.565 120.298 127.684 126.416 135.232 126.416Z" fill="url(#paint7_linear_173_460)"/>
<path d="M28.7682 126.416C36.3161 126.416 42.4349 120.298 42.4349 112.75C42.4349 105.202 36.3161 99.083 28.7682 99.083C21.2203 99.083 15.1016 105.202 15.1016 112.75C15.1016 120.298 21.2203 126.416 28.7682 126.416Z" fill="url(#paint8_linear_173_460)"/>
<path d="M112.75 148.898C120.298 148.898 126.417 142.779 126.417 135.231C126.417 127.683 120.298 121.564 112.75 121.564C105.202 121.564 99.0833 127.683 99.0833 135.231C99.0833 142.779 105.202 148.898 112.75 148.898Z" fill="url(#paint9_linear_173_460)"/>
<path d="M51.2499 148.898C58.7978 148.898 64.9166 142.779 64.9166 135.231C64.9166 127.683 58.7978 121.564 51.2499 121.564C43.702 121.564 37.5833 127.683 37.5833 135.231C37.5833 142.779 43.702 148.898 51.2499 148.898Z" fill="url(#paint10_linear_173_460)"/>
<path d="M81.9999 157.166C89.5478 157.166 95.6666 151.048 95.6666 143.5C95.6666 135.952 89.5478 129.833 81.9999 129.833C74.452 129.833 68.3333 135.952 68.3333 143.5C68.3333 151.048 74.452 157.166 81.9999 157.166Z" fill="url(#paint11_linear_173_460)"/>
<defs>
<linearGradient id="paint0_linear_173_460" x1="81.9999" y1="6.83301" x2="81.9999" y2="34.1663" gradientUnits="userSpaceOnUse">
<stop stop-color="#74DD63"/>
<stop offset="1"/>
</linearGradient>
<linearGradient id="paint1_linear_173_460" x1="112.75" y1="15.1016" x2="112.75" y2="42.4349" gradientUnits="userSpaceOnUse">
<stop stop-color="#74DD63"/>
<stop offset="1"/>
</linearGradient>
<linearGradient id="paint2_linear_173_460" x1="51.2499" y1="15.1016" x2="51.2499" y2="42.4349" gradientUnits="userSpaceOnUse">
<stop stop-color="#74DD63"/>
<stop offset="1"/>
</linearGradient>
<linearGradient id="paint3_linear_173_460" x1="135.232" y1="37.583" x2="135.232" y2="64.9163" gradientUnits="userSpaceOnUse">
<stop stop-color="#74DD63"/>
<stop offset="1"/>
</linearGradient>
<linearGradient id="paint4_linear_173_460" x1="28.7682" y1="37.583" x2="28.7682" y2="64.9163" gradientUnits="userSpaceOnUse">
<stop stop-color="#74DD63"/>
<stop offset="1"/>
</linearGradient>
<linearGradient id="paint5_linear_173_460" x1="143.5" y1="68.333" x2="143.5" y2="95.6663" gradientUnits="userSpaceOnUse">
<stop stop-color="#74DD63"/>
<stop offset="1"/>
</linearGradient>
<linearGradient id="paint6_linear_173_460" x1="20.4999" y1="68.333" x2="20.4999" y2="95.6663" gradientUnits="userSpaceOnUse">
<stop stop-color="#74DD63"/>
<stop offset="1"/>
</linearGradient>
<linearGradient id="paint7_linear_173_460" x1="135.232" y1="99.083" x2="135.232" y2="126.416" gradientUnits="userSpaceOnUse">
<stop stop-color="#74DD63"/>
<stop offset="1"/>
</linearGradient>
<linearGradient id="paint8_linear_173_460" x1="28.7682" y1="99.083" x2="28.7682" y2="126.416" gradientUnits="userSpaceOnUse">
<stop stop-color="#74DD63"/>
<stop offset="1"/>
</linearGradient>
<linearGradient id="paint9_linear_173_460" x1="112.75" y1="121.564" x2="112.75" y2="148.898" gradientUnits="userSpaceOnUse">
<stop stop-color="#74DD63"/>
<stop offset="1"/>
</linearGradient>
<linearGradient id="paint10_linear_173_460" x1="51.2499" y1="121.564" x2="51.2499" y2="148.898" gradientUnits="userSpaceOnUse">
<stop stop-color="#74DD63"/>
<stop offset="1"/>
</linearGradient>
<linearGradient id="paint11_linear_173_460" x1="81.9999" y1="129.833" x2="81.9999" y2="157.166" gradientUnits="userSpaceOnUse">
<stop stop-color="#74DD63"/>
<stop offset="1"/>
</linearGradient>
</defs>
</svg>
