<svg width="368" height="86" viewBox="0 0 368 86" fill="none" xmlns="http://www.w3.org/2000/svg">
<path d="M74.8404 37.7481L83.6288 48.5707L79.3944 54.4143L66 37.6846L74.8404 37.7481Z" fill="black" stroke="black" stroke-width="1.09724"/>
<path d="M82.6675 37.6012L87.5435 43.31L97.1775 30.5975L106.824 43.2831L111.648 38.0121L97.1252 19L82.6675 37.6012Z" fill="black" stroke="black" stroke-width="0.986311"/>
<path d="M83.4937 60.0915L97.216 40.7128L106.806 53.0845L120.02 37.7861L128.708 37.9192L106.673 65.819L97.5616 53.2949L88.3863 66.0222L83.4937 60.0915Z" fill="black" stroke="black" stroke-width="1.18311"/>
<path d="M161.271 53.664C161.591 54.688 162.135 55.488 162.903 56.064C163.671 56.64 164.487 56.928 165.351 56.928C165.351 57.504 165.255 58.064 165.063 58.608C164.871 59.152 164.599 59.616 164.247 60H151.239C150.887 59.616 150.615 59.152 150.423 58.608C150.231 58.064 150.135 57.504 150.135 56.928C151.959 56.928 152.871 56.16 152.871 54.624C152.871 53.984 152.759 53.232 152.535 52.368L152.247 51.36H141.495L141.207 52.368C140.919 53.36 140.775 54.064 140.775 54.48C140.775 56.112 141.799 56.928 143.847 56.928C143.847 57.504 143.751 58.064 143.559 58.608C143.367 59.152 143.095 59.616 142.743 60H132.039C131.687 59.616 131.415 59.152 131.223 58.608C131.031 58.064 130.935 57.504 130.935 56.928C131.831 56.928 132.647 56.672 133.383 56.16C134.119 55.616 134.663 54.832 135.015 53.808L142.887 30.576C141.607 30.16 139.991 29.952 138.039 29.952C138.039 28.576 138.423 27.424 139.191 26.496H152.343L161.271 53.664ZM151.191 47.616L147.783 35.712C147.495 34.752 147.127 33.936 146.679 33.264L142.551 47.616H151.191ZM181.586 33.936C183.026 33.936 184.082 34.304 184.754 35.04C185.426 35.776 185.762 36.784 185.762 38.064C185.762 39.44 185.394 40.56 184.658 41.424C183.954 42.288 182.994 42.72 181.778 42.72C180.722 42.72 179.858 42.416 179.186 41.808C178.546 41.2 178.226 40.48 178.226 39.648C178.226 39.136 178.274 38.736 178.37 38.448C177.218 38.736 176.242 39.232 175.442 39.936V54.336C175.442 55.136 175.554 55.744 175.778 56.16C176.002 56.576 176.434 56.896 177.074 57.12C177.746 57.312 178.738 57.408 180.05 57.408C180.05 57.984 179.986 58.48 179.858 58.896C179.73 59.28 179.49 59.648 179.138 60H166.322C165.586 59.264 165.218 58.4 165.218 57.408C166.146 57.408 166.802 57.216 167.186 56.832C167.602 56.416 167.81 55.728 167.81 54.768V40.896C167.81 40.032 167.57 39.424 167.09 39.072C166.642 38.72 165.826 38.544 164.642 38.544V36.384C165.698 35.776 167.09 35.248 168.818 34.8C170.578 34.32 171.938 34.08 172.898 34.08C173.666 34.08 174.21 34.352 174.53 34.896C174.85 35.44 175.01 36.528 175.01 38.16C175.586 37.072 176.498 36.096 177.746 35.232C178.994 34.368 180.274 33.936 181.586 33.936ZM196.619 38.832V52.368C196.619 53.328 196.811 54 197.195 54.384C197.579 54.736 198.123 54.912 198.827 54.912C199.435 54.912 200.075 54.752 200.747 54.432C201.419 54.112 201.947 53.712 202.331 53.232C202.651 53.488 202.875 53.872 203.003 54.384C203.163 54.896 203.243 55.36 203.243 55.776C203.243 56.512 202.987 57.232 202.475 57.936C201.963 58.64 201.195 59.216 200.171 59.664C199.147 60.112 197.915 60.336 196.475 60.336C194.235 60.336 192.427 59.696 191.051 58.416C189.707 57.136 189.035 55.008 189.035 52.032V38.832H186.011V35.904C186.843 35.776 187.643 35.248 188.411 34.32C189.211 33.36 189.883 32.176 190.427 30.768C191.003 29.328 191.371 27.904 191.531 26.496C192.107 26.4 192.635 26.352 193.115 26.352C194.267 26.352 195.115 26.688 195.659 27.36C196.235 28 196.523 28.72 196.523 29.52V34.56H202.091C202.091 35.52 202.043 36.352 201.947 37.056C201.851 37.728 201.643 38.32 201.323 38.832H196.619ZM218.985 55.104C221.001 55.104 222.873 54.464 224.601 53.184C224.857 53.44 225.081 53.824 225.273 54.336C225.465 54.848 225.561 55.296 225.561 55.68C225.561 56.256 225.177 56.928 224.409 57.696C223.641 58.432 222.569 59.072 221.193 59.616C219.849 60.16 218.329 60.432 216.633 60.432C214.265 60.432 212.185 59.92 210.393 58.896C208.633 57.872 207.273 56.384 206.313 54.432C205.353 52.48 204.873 50.176 204.873 47.52C204.873 44.8 205.385 42.416 206.409 40.368C207.465 38.32 208.905 36.752 210.729 35.664C212.553 34.544 214.617 33.984 216.921 33.984C219.833 33.984 222.153 34.832 223.881 36.528C225.609 38.224 226.473 40.576 226.473 43.584C226.473 44.992 226.249 46.112 225.801 46.944C225.353 47.744 224.553 48.144 223.401 48.144H213.033C213.225 52.784 215.209 55.104 218.985 55.104ZM216.633 37.296C215.641 37.296 214.809 37.856 214.137 38.976C213.465 40.064 213.097 41.904 213.033 44.496H217.881C218.393 44.496 218.729 44.32 218.889 43.968C219.049 43.616 219.129 43.072 219.129 42.336C219.129 40.448 218.905 39.136 218.457 38.4C218.009 37.664 217.401 37.296 216.633 37.296ZM238.807 60.48C237.239 60.48 235.671 60.256 234.103 59.808C232.567 59.328 231.303 58.656 230.311 57.792C229.319 56.928 228.823 55.904 228.823 54.72C228.823 53.6 229.143 52.704 229.783 52.032C230.423 51.328 231.239 50.976 232.231 50.976C233.127 50.976 233.879 51.264 234.487 51.84C235.127 52.416 235.447 53.168 235.447 54.096C235.447 54.512 235.383 54.88 235.255 55.2C235.159 55.488 234.967 55.808 234.679 56.16C234.935 56.416 235.415 56.624 236.119 56.784C236.823 56.912 237.575 56.976 238.375 56.976C239.463 56.976 240.311 56.784 240.919 56.4C241.559 55.984 241.879 55.456 241.879 54.816C241.879 53.952 241.479 53.216 240.679 52.608C239.879 51.968 238.599 51.184 236.839 50.256C235.047 49.296 233.687 48.512 232.759 47.904C231.831 47.264 230.999 46.416 230.263 45.36C229.559 44.272 229.207 42.944 229.207 41.376C229.207 39.2 230.103 37.44 231.895 36.096C233.687 34.752 236.167 34.08 239.335 34.08C242.439 34.08 244.743 34.64 246.247 35.76C247.783 36.848 248.551 38.16 248.551 39.696C248.551 40.656 248.231 41.44 247.591 42.048C246.983 42.656 246.231 42.96 245.335 42.96C244.503 42.96 243.783 42.72 243.175 42.24C242.599 41.728 242.311 41.072 242.311 40.272C242.311 39.856 242.375 39.44 242.503 39.024C242.631 38.576 242.807 38.208 243.031 37.92C242.391 37.408 241.431 37.152 240.151 37.152C239.127 37.152 238.327 37.392 237.751 37.872C237.175 38.352 236.887 38.96 236.887 39.696C236.887 40.688 237.287 41.504 238.087 42.144C238.887 42.784 240.167 43.552 241.927 44.448C243.591 45.312 244.903 46.064 245.863 46.704C246.823 47.344 247.655 48.192 248.359 49.248C249.063 50.304 249.415 51.6 249.415 53.136C249.415 55.632 248.391 57.488 246.343 58.704C244.327 59.888 241.815 60.48 238.807 60.48ZM251.556 53.232C251.556 51.088 252.26 49.392 253.668 48.144C255.076 46.896 257.156 46.272 259.908 46.272C260.868 46.272 261.844 46.368 262.836 46.56C263.86 46.752 264.692 47.008 265.332 47.328V40.944C265.332 39.664 265.012 38.752 264.372 38.208C263.732 37.632 262.868 37.344 261.78 37.344C260.724 37.344 259.86 37.6 259.188 38.112C259.796 38.304 260.244 38.64 260.532 39.12C260.852 39.568 261.012 40.08 261.012 40.656C261.012 41.68 260.644 42.512 259.908 43.152C259.172 43.792 258.244 44.112 257.124 44.112C255.908 44.112 254.932 43.76 254.196 43.056C253.46 42.352 253.092 41.44 253.092 40.32C253.092 39.2 253.476 38.144 254.244 37.152C255.012 36.16 256.18 35.36 257.748 34.752C259.348 34.144 261.316 33.84 263.652 33.84C266.82 33.84 269.22 34.496 270.852 35.808C272.484 37.088 273.3 38.976 273.3 41.472V54.192C273.3 55.728 274.036 56.656 275.508 56.976V58.512C275.092 59.088 274.404 59.536 273.444 59.856C272.484 60.176 271.508 60.336 270.516 60.336C268.34 60.336 266.804 59.584 265.908 58.08C265.172 58.72 264.276 59.264 263.22 59.712C262.164 60.128 260.964 60.336 259.62 60.336C257.22 60.336 255.268 59.68 253.764 58.368C252.292 57.024 251.556 55.312 251.556 53.232ZM265.332 51.024C264.98 50.8 264.548 50.608 264.036 50.448C263.556 50.288 263.092 50.208 262.644 50.208C261.748 50.208 261.012 50.496 260.436 51.072C259.86 51.616 259.572 52.416 259.572 53.472C259.572 54.336 259.86 55.056 260.436 55.632C261.012 56.176 261.78 56.448 262.74 56.448C263.22 56.448 263.684 56.384 264.132 56.256C264.612 56.096 265.012 55.904 265.332 55.68V51.024ZM304.697 58.704C304.217 59.184 303.353 59.568 302.105 59.856C300.889 60.144 299.721 60.288 298.601 60.288C297.225 60.288 296.201 60.032 295.529 59.52C294.889 59.008 294.569 58.192 294.569 57.072V42.096C294.569 40.848 294.297 39.952 293.753 39.408C293.209 38.864 292.489 38.592 291.593 38.592C290.281 38.592 289.177 39.12 288.281 40.176V54.816C288.281 55.744 288.473 56.416 288.857 56.832C289.273 57.248 289.961 57.456 290.921 57.456C290.921 58.416 290.553 59.264 289.817 60H278.921C278.153 59.232 277.769 58.384 277.769 57.456C278.729 57.456 279.417 57.248 279.833 56.832C280.249 56.416 280.457 55.744 280.457 54.816V40.8C280.457 39.936 280.217 39.328 279.737 38.976C279.257 38.592 278.425 38.4 277.241 38.4V36.24C278.265 35.664 279.705 35.136 281.561 34.656C283.449 34.176 284.873 33.936 285.833 33.936C286.569 33.936 287.129 34.176 287.513 34.656C287.929 35.104 288.169 35.968 288.233 37.248C289.065 36.224 290.105 35.424 291.353 34.848C292.601 34.24 294.009 33.936 295.577 33.936C297.881 33.936 299.577 34.528 300.665 35.712C301.785 36.864 302.345 38.768 302.345 41.424V54.528C302.345 56.096 303.113 57.024 304.649 57.312L304.697 58.704Z" fill="black"/>
</svg>
