<svg width="534" height="262" viewBox="0 0 534 262" fill="none" xmlns="http://www.w3.org/2000/svg">
<path d="M198.179 3.83723L194.846 7.03723V59.7039C194.846 88.6372 195.246 113.304 195.646 114.504C198.046 120.504 198.046 120.504 304.846 120.504C391.913 120.504 406.179 120.237 409.512 118.504C411.913 117.304 415.512 112.771 418.846 107.171C434.579 80.3706 458.846 59.3039 488.179 47.1706C498.712 42.7706 521.113 36.5039 526.179 36.5039C532.046 36.5039 533.513 32.7706 533.513 18.2372C533.513 7.03723 533.113 4.5039 531.113 2.77057C528.846 0.63723 515.379 0.503899 364.979 0.503899H201.379L198.179 3.83723Z" fill="black"/>
<path d="M2.97917 15.9706C-3.02083 23.5706 -0.220832 30.9039 13.7792 43.8372C39.1125 67.1706 77.9125 86.5039 122.979 97.9706C135.779 101.171 174.579 108.504 178.979 108.504C179.646 108.504 180.179 88.9039 180.179 60.5039V12.5039H92.9792H5.64583L2.97917 15.9706Z" fill="black"/>
<path d="M228.979 142.504C236.446 158.637 236.179 175.304 228.312 192.104C218.579 212.37 193.912 229.304 164.046 235.97C158.579 237.17 153.379 238.37 152.579 238.637C151.379 238.904 150.846 242.504 150.846 250.504V261.837H305.512H460.179V250.504C460.179 242.504 459.646 238.904 458.579 238.637C457.646 238.37 451.513 236.904 444.846 235.304C430.046 231.837 408.579 221.437 399.379 213.17C379.246 195.57 372.046 168.904 381.246 145.304L385.246 135.17H305.379H225.646L228.979 142.504Z" fill="#74DD63"/>
</svg>
