<svg width="59" height="56" viewBox="0 0 59 56" fill="none" xmlns="http://www.w3.org/2000/svg">
<path d="M34.0458 2.17047C33.1125 4.43713 32.9792 4.17047 45.3792 19.1038C53.6458 29.2371 58.8458 32.3038 58.8458 27.1038C58.8458 24.5705 38.1792 0.170467 36.0458 0.170467C35.3792 0.170467 34.4458 1.1038 34.0458 2.17047Z" fill="#D9D9D9"/>
<path d="M0.179199 13.2368C0.179199 16.5702 46.3125 43.9035 48.4459 41.7702C49.2459 40.9702 49.5125 39.5035 49.1125 38.4368C48.1792 36.0368 5.51253 10.8368 2.44587 10.8368C1.11253 10.8368 0.179199 11.9035 0.179199 13.2368Z" fill="#D9D9D9"/>
<path d="M6.04587 45.6365C4.31254 48.4365 9.11254 50.4365 24.1792 53.2365C39.3792 56.0365 42.7125 55.7698 41.1125 51.7698C40.5792 50.4365 35.1125 48.8365 25.2459 46.9698C7.91254 43.7698 7.24587 43.6365 6.04587 45.6365Z" fill="#D9D9D9"/>
</svg>
