<svg width="398" height="226" viewBox="0 0 398 226" fill="none" xmlns="http://www.w3.org/2000/svg">
<path d="M353.979 2.10397C350.913 3.57063 348.646 6.10397 347.313 9.4373C344.779 15.4373 356.113 11.4373 251.313 43.0373C213.713 54.3706 182.646 63.9706 182.379 64.2373C182.113 64.504 184.379 73.1706 187.446 83.4373L193.046 102.237L198.379 100.637C339.579 57.5706 356.513 52.7706 359.046 55.0373C366.113 61.4373 379.713 58.104 384.246 49.0373C385.713 46.104 388.513 42.504 390.513 40.904C397.713 35.304 399.846 24.2373 395.313 15.8373C392.779 10.904 383.579 5.17063 378.379 5.17063C376.646 5.17063 373.313 3.97063 370.913 2.50397C365.579 -0.696037 359.979 -0.829369 353.979 2.10397Z" fill="#74DD63"/>
<path d="M51.3125 17.1703C5.84583 31.037 2.5125 32.637 1.17916 40.3703C0.64583 43.3037 5.04583 60.1037 17.1792 100.504C26.3792 131.304 38.1125 170.637 43.3125 187.837C53.0458 220.637 54.6458 223.97 62.5125 225.97C65.9792 226.904 153.312 201.17 158.779 197.704C160.379 196.637 162.379 193.57 163.312 190.77C164.646 185.97 163.579 181.704 145.846 122.37C135.446 87.5703 123.979 48.9037 120.246 36.5037C116.513 23.9703 112.913 12.637 112.246 11.1703C109.846 6.50366 105.446 3.83701 99.8458 3.97034C96.9125 3.97034 75.0458 9.97034 51.3125 17.1703Z" fill="#8A8A8A"/>
<path d="M146.379 66.3701L139.579 67.1701L147.712 94.7701C152.112 109.837 156.512 122.237 157.179 122.37C159.712 122.37 184.512 107.303 184.112 105.837C183.712 105.17 180.912 95.7034 177.846 84.7701L172.112 65.1701L162.646 65.4368C157.446 65.5701 150.112 65.9701 146.379 66.3701Z" fill="#D9D9D9"/>
<path d="M4.77913 114.903C-0.554205 120.636 -0.954205 125.303 2.77913 138.236C6.77913 151.836 11.0458 157.436 17.9791 157.703C20.5125 157.703 22.7791 157.57 23.1791 157.17C24.2458 155.97 10.6458 111.836 9.17913 111.836C8.37913 111.836 6.37913 113.303 4.77913 114.903Z" fill="#D9D9D9"/>
</svg>
