<svg width="60" height="60" viewBox="0 0 60 60" fill="none" xmlns="http://www.w3.org/2000/svg">
<path fill-rule="evenodd" clip-rule="evenodd" d="M30 3.125C30.4973 3.125 30.9742 3.32254 31.3258 3.67417C31.6775 4.02581 31.875 4.50272 31.875 5V7.5C31.875 7.99728 31.6775 8.47419 31.3258 8.82583C30.9742 9.17746 30.4973 9.375 30 9.375C29.5027 9.375 29.0258 9.17746 28.6742 8.82583C28.3225 8.47419 28.125 7.99728 28.125 7.5V5C28.125 4.50272 28.3225 4.02581 28.6742 3.67417C29.0258 3.32254 29.5027 3.125 30 3.125ZM10.9975 10.9975C11.3491 10.6464 11.8256 10.4491 12.3225 10.4491C12.8194 10.4491 13.2959 10.6464 13.6475 10.9975L14.63 11.9775C14.9717 12.331 15.1609 12.8045 15.1569 13.2961C15.1529 13.7878 14.9559 14.2581 14.6084 14.6059C14.2609 14.9537 13.7907 15.1511 13.2991 15.1557C12.8075 15.1602 12.3338 14.9714 11.98 14.63L10.9975 13.6475C10.6464 13.2959 10.4491 12.8194 10.4491 12.3225C10.4491 11.8256 10.6464 11.3491 10.9975 10.9975ZM49.0025 10.9975C49.3536 11.3491 49.5508 11.8256 49.5508 12.3225C49.5508 12.8194 49.3536 13.2959 49.0025 13.6475L48.02 14.63C47.6646 14.9612 47.1944 15.1415 46.7087 15.1329C46.2229 15.1244 45.7595 14.9276 45.4159 14.5841C45.0724 14.2405 44.8756 13.7771 44.8671 13.2913C44.8585 12.8056 45.0388 12.3354 45.37 11.98L46.3525 10.9975C46.7041 10.6464 47.1806 10.4491 47.6775 10.4491C48.1744 10.4491 48.6509 10.6464 49.0025 10.9975ZM30 16.875C26.519 16.875 23.1806 18.2578 20.7192 20.7192C18.2578 23.1806 16.875 26.519 16.875 30C16.875 33.481 18.2578 36.8194 20.7192 39.2808C23.1806 41.7422 26.519 43.125 30 43.125C33.481 43.125 36.8194 41.7422 39.2808 39.2808C41.7422 36.8194 43.125 33.481 43.125 30C43.125 26.519 41.7422 23.1806 39.2808 20.7192C36.8194 18.2578 33.481 16.875 30 16.875ZM13.125 30C13.125 25.5245 14.9029 21.2323 18.0676 18.0676C21.2323 14.9029 25.5245 13.125 30 13.125C34.4755 13.125 38.7677 14.9029 41.9324 18.0676C45.0971 21.2323 46.875 25.5245 46.875 30C46.875 34.4755 45.0971 38.7677 41.9324 41.9324C38.7677 45.0971 34.4755 46.875 30 46.875C25.5245 46.875 21.2323 45.0971 18.0676 41.9324C14.9029 38.7677 13.125 34.4755 13.125 30ZM3.125 30C3.125 29.5027 3.32254 29.0258 3.67417 28.6742C4.02581 28.3225 4.50272 28.125 5 28.125H7.5C7.99728 28.125 8.47419 28.3225 8.82583 28.6742C9.17746 29.0258 9.375 29.5027 9.375 30C9.375 30.4973 9.17746 30.9742 8.82583 31.3258C8.47419 31.6775 7.99728 31.875 7.5 31.875H5C4.50272 31.875 4.02581 31.6775 3.67417 31.3258C3.32254 30.9742 3.125 30.4973 3.125 30ZM50.625 30C50.625 29.5027 50.8225 29.0258 51.1742 28.6742C51.5258 28.3225 52.0027 28.125 52.5 28.125H55C55.4973 28.125 55.9742 28.3225 56.3258 28.6742C56.6775 29.0258 56.875 29.5027 56.875 30C56.875 30.4973 56.6775 30.9742 56.3258 31.3258C55.9742 31.6775 55.4973 31.875 55 31.875H52.5C52.0027 31.875 51.5258 31.6775 51.1742 31.3258C50.8225 30.9742 50.625 30.4973 50.625 30ZM45.37 45.37C45.7216 45.0189 46.1981 44.8216 46.695 44.8216C47.1919 44.8216 47.6684 45.0189 48.02 45.37L49.0025 46.3525C49.1867 46.5242 49.3345 46.7312 49.437 46.9612C49.5394 47.1912 49.5945 47.4394 49.599 47.6912C49.6034 47.943 49.5571 48.193 49.4628 48.4265C49.3685 48.66 49.2281 48.8721 49.0501 49.0501C48.8721 49.2281 48.66 49.3685 48.4265 49.4628C48.193 49.5571 47.943 49.6034 47.6912 49.599C47.4394 49.5945 47.1912 49.5394 46.9612 49.437C46.7312 49.3345 46.5242 49.1867 46.3525 49.0025L45.37 48.02C45.0189 47.6684 44.8216 47.1919 44.8216 46.695C44.8216 46.1981 45.0189 45.7216 45.37 45.37ZM14.63 45.37C14.9811 45.7216 15.1784 46.1981 15.1784 46.695C15.1784 47.1919 14.9811 47.6684 14.63 48.02L13.6475 49.0025C13.4758 49.1867 13.2688 49.3345 13.0388 49.437C12.8088 49.5394 12.5606 49.5945 12.3088 49.599C12.057 49.6034 11.807 49.5571 11.5735 49.4628C11.34 49.3685 11.128 49.2281 10.9499 49.0501C10.7719 48.8721 10.6315 48.66 10.5372 48.4265C10.4429 48.193 10.3966 47.943 10.401 47.6912C10.4055 47.4394 10.4606 47.1912 10.563 46.9612C10.6655 46.7312 10.8133 46.5242 10.9975 46.3525L11.9775 45.37C12.1516 45.1958 12.3584 45.0575 12.5859 44.9632C12.8135 44.8689 13.0574 44.8204 13.3037 44.8204C13.5501 44.8204 13.794 44.8689 14.0216 44.9632C14.2491 45.0575 14.4559 45.1958 14.63 45.37ZM30 50.625C30.4973 50.625 30.9742 50.8225 31.3258 51.1742C31.6775 51.5258 31.875 52.0027 31.875 52.5V55C31.875 55.4973 31.6775 55.9742 31.3258 56.3258C30.9742 56.6775 30.4973 56.875 30 56.875C29.5027 56.875 29.0258 56.6775 28.6742 56.3258C28.3225 55.9742 28.125 55.4973 28.125 55V52.5C28.125 52.0027 28.3225 51.5258 28.6742 51.1742C29.0258 50.8225 29.5027 50.625 30 50.625Z" fill="black"/>
</svg>
