<svg width="60" height="60" viewBox="0 0 60 60" fill="none" xmlns="http://www.w3.org/2000/svg">
<path d="M30 55C43.8075 55 55 43.8075 55 30C55 28.8425 53.265 28.65 52.6675 29.6425C51.3931 31.7534 49.6551 33.5465 47.585 34.8862C45.515 36.2258 43.1672 37.0768 40.7196 37.3748C38.2719 37.6727 35.7886 37.4097 33.4576 36.6057C31.1267 35.8017 29.0092 34.4778 27.2657 32.7343C25.5222 30.9908 24.1983 28.8733 23.3943 26.5424C22.5903 24.2114 22.3273 21.7281 22.6252 19.2804C22.9232 16.8328 23.7742 14.485 25.1138 12.415C26.4535 10.3449 28.2466 8.60689 30.3575 7.3325C31.35 6.7325 31.1575 5 30 5C16.1925 5 5 16.1925 5 30C5 43.8075 16.1925 55 30 55Z" fill="white"/>
</svg>
