<svg width="40" height="40" viewBox="0 0 506 674" fill="none" xmlns="http://www.w3.org/2000/svg">
<path d="M1.50427 23.186C0.451044 30.0022 1.35014 37.8985 1.50427 44.7867C2.68595 99.6764 16.1724 156.342 24.624 210.392C25.3946 212.648 29.1195 216.224 27.1928 219.992C33.4095 216.44 41.3472 213.968 45.1748 207.992C40.294 179.839 35.9269 149.814 32.3305 121.589C28.7598 93.3642 14.6311 66.0754 22.0038 37.5385C29.3507 8.97756 80.0342 20.8819 86.2765 44.7867C31.4058 42.5066 53.7291 103.997 54.8851 141.318C56.0411 178.639 60.3311 232.569 65.7257 270.394C70.9404 259.737 97.5024 255.825 107.47 246.993C117.411 238.161 137.731 231.993 149.727 224.072C161.698 216.128 178.344 206.672 191.805 200.984C205.24 195.271 220.217 179.047 235.27 179.191C199.846 162.822 165.962 117.293 181.324 80.7878C165.346 70.7795 146.876 63.1473 132.516 51.9869C173.309 66.3634 212.561 85.156 253.252 99.9884C249.373 94.6123 258.313 91.6362 263.528 90.3881C265.634 85.564 258.852 86.86 258.39 83.1879C188.157 57.4351 118.105 19.2499 45.1748 1.58533C39.138 0.841306 30.6608 0.769304 24.624 1.58533C10.8549 5.06544 5.22912 10.3696 1.50427 23.186Z" stroke="#74DD63" stroke-width="0.3"/>
<path d="M45.1748 207.993C51.674 245.338 61.6925 284.363 65.7256 323.196C73.5349 307.116 63.4136 288.011 65.7256 270.395C60.331 232.569 56.041 178.64 54.885 141.319C53.729 103.997 31.4057 42.5075 86.2765 44.7875C80.0341 20.8828 29.3506 8.97842 22.0037 37.5393C14.6311 66.0762 28.7598 93.3651 32.3305 121.59C35.9269 149.815 40.2939 179.84 45.1748 207.993Z" stroke="#18AD00" stroke-width="0.3"/>
<path d="M235.27 179.177C282.511 200.993 348.737 172.576 386.833 215.178C382.8 196.217 369.801 178.361 346.527 173.632C323.228 168.928 294.148 167.512 268.64 164.8C243.131 162.064 231.648 156.4 211.508 138.975C191.368 121.551 200.488 96.9261 225.2 111.783C249.887 126.663 268.1 126.711 294.354 119.175C283.359 109.886 266.61 106.814 253.252 99.9742C212.561 85.1417 173.309 66.3491 132.516 51.9727C146.876 63.133 165.346 70.7652 181.324 80.7736C165.962 117.279 199.846 162.808 235.27 179.177Z" stroke="#052200" stroke-width="0.3"/>
<path d="M253.252 99.9792C266.61 106.819 283.359 109.892 294.354 119.18C268.1 126.716 249.887 126.668 225.2 111.788C200.488 96.9311 191.368 121.556 211.508 138.98C231.648 156.405 243.131 162.069 268.64 164.805C294.148 167.517 323.228 168.933 346.527 173.638C369.801 178.366 382.8 196.222 386.833 215.183C348.737 172.582 282.511 200.998 235.27 179.182C220.217 179.038 205.24 195.262 191.805 200.974C178.344 206.663 161.698 216.119 149.727 224.063C137.731 231.983 117.411 238.152 107.47 246.984C97.5025 255.816 70.9405 259.728 65.7257 270.385C63.4138 288.001 73.5351 307.106 65.7257 323.186C61.6926 284.353 51.6741 245.328 45.1749 207.983C41.3473 213.959 33.4095 216.431 27.1929 219.983C29.1195 216.215 25.3947 212.639 24.624 210.383C28.9654 238.08 32.6902 267.024 37.4683 294.385C42.2464 321.746 35.4903 352.203 70.8634 359.187C78.2361 359.523 86.0968 358.947 88.8454 351.987C90.3867 340.371 85.6601 325.802 91.4143 315.986C93.5208 327.05 97.297 337.923 96.552 349.587C97.297 351.747 95.9355 354.579 96.552 356.787C113.481 349.851 129.176 339.291 145.36 330.386C147.338 298.369 183.251 277.777 214.719 291.985C229.362 290.209 241.127 273.001 255.821 270.385C252.173 263.76 243.876 260.136 240.408 253.584C233.421 249.84 218.239 247.44 224.995 243.984C233.189 239.808 242.746 242.064 250.683 243.984C295.022 254.712 315.059 291.601 325.18 330.386C326.413 332.307 329.085 334.251 327.749 337.587C341.081 335.091 350.355 323.258 363.713 320.786C364.33 326.954 369.056 331.875 371.42 337.587C390.558 325.274 419.123 323.498 438.21 337.587C436.129 310.61 400.73 315.074 381.695 306.386C382.902 297.889 395.207 295.249 402.246 291.985C402.04 288.961 396.954 290.641 397.108 287.185C381.078 281.665 358.832 279.049 346.373 267.385C333.914 255.744 328.725 234.983 349.148 225.575C369.57 216.167 380.924 239.304 389.402 251.184C394.77 254.28 400.062 248.328 402.246 243.984C408.719 225.839 405.046 202.39 394.539 186.382C389.093 179.326 375.966 169.389 368.851 164.781C349.122 154.629 327.492 150.381 304.629 150.381C291.4 150.381 277.477 149.877 266.096 147.981C248.037 147.213 229.49 141.285 217.288 128.78C239.201 139.868 264.016 138.38 289.216 138.38C300.827 137.324 313.492 136.268 325.18 138.38C338.358 140.661 352.076 140.997 363.713 147.981C361.067 107.995 294.559 96.4511 258.39 83.1787C258.852 86.8508 265.634 85.5548 263.528 90.3789C258.313 91.627 249.373 94.6031 253.252 99.9792Z" stroke="#74DD63" stroke-width="0.3"/>
<path d="M289.216 138.39C301.084 138.39 313.363 137.502 325.18 138.39C313.492 136.278 300.827 137.334 289.216 138.39Z" stroke="#74DD63" stroke-width="0.3"/>
<path d="M304.629 150.399C293.737 149.415 278.761 148.815 266.096 147.999C277.476 149.895 291.4 150.399 304.629 150.399Z" stroke="#18AD00" stroke-width="0.3"/>
<path d="M394.539 186.4C388.656 177.423 378.432 169.743 368.851 164.799C375.966 169.407 389.093 179.343 394.539 186.4Z" stroke="#74DD63" stroke-width="0.3"/>
<path d="M224.995 243.988C231.674 242.404 243.824 243.124 250.683 243.988C242.746 242.068 233.189 239.811 224.995 243.988Z" stroke="#18AD00" stroke-width="0.3"/>
<path d="M389.401 251.19C389.401 253.591 389.401 255.991 389.401 258.391C396.98 258.295 400.293 249.438 402.246 243.99C400.062 248.334 394.77 254.287 389.401 251.19Z" stroke="#18AD00" stroke-width="0.3"/>
<path d="M214.719 291.991C218.239 293.575 223.042 298.039 224.995 301.591C199.563 287.047 165.269 302.935 163.394 330.44C161.544 357.969 185.203 378.346 212.15 383.194C180.708 392.77 142.175 362.145 145.36 330.392C129.176 339.297 113.481 349.857 96.552 356.793C95.9355 354.585 97.297 351.753 96.552 349.593C96.2694 354.201 93.9831 362.361 93.9831 368.793C93.9831 383.074 92.9556 397.738 93.9831 411.995C95.1134 427.571 102.101 440.412 111.965 452.796C118.439 459.732 128.483 465.397 135.085 471.997C140.094 464.292 161.441 463.26 168.685 455.388C175.904 447.492 195.787 444.732 201.875 435.996C196.609 404.699 239.483 410.747 253.252 426.395C258.133 431.939 261.652 435.684 263.528 443.196C263.528 443.196 263.553 444.396 263.528 445.596C264.093 447.276 266.636 451.644 268.665 452.796C272.647 449.076 273.366 442.788 278.941 440.796C283.847 428.195 281.792 415.571 273.803 404.795C269.282 399.586 261.036 392.506 255.821 387.994C239.663 376.066 222.195 368.313 203.802 359.793C185.383 351.297 173.695 325.016 198.741 315.464C223.762 305.911 238.995 325.568 245.546 344.793C246.368 347.193 247.883 355.353 250.683 356.793C276.937 357.369 280.662 319.16 276.32 301.639C271.953 284.143 258.724 263.43 240.408 253.59C243.876 260.142 252.173 263.766 255.821 270.39C241.127 273.006 229.362 290.215 214.719 291.991Z" stroke="#74DD63" stroke-width="0.3"/>
<path d="M145.36 330.396C142.175 362.149 180.708 392.773 212.15 383.197C185.203 378.349 161.544 357.972 163.394 330.444C165.269 302.939 199.563 287.05 224.995 301.595C223.042 298.042 218.239 293.578 214.719 291.994C183.251 277.786 147.338 298.378 145.36 330.396Z" stroke="#74DD63" stroke-width="0.3"/>
<path d="M325.18 330.409C332.681 359.162 335.378 391.443 353.437 416.812C357.188 421.3 364.817 424.708 368.851 428.812C368.953 426.82 371.651 426.22 371.419 424.012C370.649 416.188 357.419 410.308 357.753 400.78C358.061 391.251 353.309 379.995 361.144 371.211C366.359 384.123 368.619 400.348 379.126 412.012C388.451 419.452 396.671 414.916 394.539 404.812C393.126 402.412 392.69 397.875 391.97 395.211C388.194 386.331 386.396 383.211 389.401 373.611C395.721 336.074 442.474 357.266 443.347 385.611C464.284 372.267 463.205 339.314 451.054 320.809C446.764 315.265 436.052 305.953 430.503 301.608C420.279 294.768 408.591 291.168 397.108 287.208C396.954 290.664 402.04 288.984 402.246 292.008C395.207 295.272 382.902 297.912 381.695 306.409C400.73 315.097 436.129 310.633 438.21 337.61C419.123 323.521 390.557 325.297 371.419 337.61C369.056 331.897 364.329 326.977 363.713 320.809C350.355 323.281 341.081 335.114 327.749 337.61C329.085 334.273 326.413 332.329 325.18 330.409Z" stroke="#74DD63" stroke-width="0.3"/>
<path d="M451.054 320.796C446.353 313.62 437.902 306.54 430.503 301.596C436.052 305.94 446.764 315.252 451.054 320.796Z" stroke="black" stroke-width="0.3"/>
<path d="M250.683 356.79C247.883 355.35 246.368 347.19 245.546 344.79C247.601 353.91 242.669 356.622 250.683 356.79Z" stroke="#052200" stroke-width="0.3"/>
<path d="M70.8633 359.195C79.3406 360.875 85.8911 363.011 88.8453 351.995C86.0966 358.955 78.2359 359.531 70.8633 359.195Z" stroke="#18AD00" stroke-width="0.3"/>
<path d="M93.9832 411.996C92.9556 397.74 93.9832 383.075 93.9832 368.795C92.5703 382.331 91.3373 398.148 93.9832 411.996Z" stroke="#74DD63" stroke-width="0.3"/>
<path d="M371.419 424.01C378.175 429.338 388.348 431.618 397.108 431.21C392.664 423.746 383.416 419.402 379.126 412.009C368.619 400.345 366.359 384.12 361.144 371.208C353.309 379.992 358.061 391.249 357.753 400.777C357.419 410.305 370.649 416.185 371.419 424.01Z" stroke="#18AD00" stroke-width="0.3"/>
<path d="M391.97 395.184C390.069 388.223 388.271 381.215 389.401 373.583C386.396 383.183 388.194 386.303 391.97 395.184Z" stroke="#74DD63" stroke-width="0.3"/>
<path d="M273.803 404.808C269.025 398.352 262.474 392.928 255.821 388.008C261.036 392.52 269.282 399.6 273.803 404.808Z" stroke="#18AD00" stroke-width="0.3"/>
<path d="M379.126 411.99C383.416 419.382 392.664 423.727 397.108 431.191C388.348 431.599 378.176 429.319 371.419 423.991C371.651 426.199 368.953 426.799 368.851 428.791C370.674 430.639 372.113 434.455 373.988 435.991C383.031 441.175 391.713 442.663 402.246 443.191C410.749 443.623 419.406 443.191 427.934 443.191C429.219 443.191 431.788 443.071 433.072 443.191C436.951 442.135 437.722 439.159 435.641 435.991C430.015 433.063 422.899 431.575 417.659 428.791C411.031 425.263 403.479 417.966 399.677 411.99C398.367 409.902 395.669 406.71 394.539 404.79C396.671 414.894 388.451 419.431 379.126 411.99Z" stroke="#74DD63" stroke-width="0.3"/>
<path d="M417.659 428.809C413.42 426.145 402.811 416.041 399.677 412.009C403.479 417.985 411.031 425.281 417.659 428.809Z" stroke="black" stroke-width="0.3"/>
<path d="M373.988 435.999C372.113 434.463 370.675 430.647 368.851 428.799C364.818 424.695 357.188 421.287 353.438 416.799C358.293 423.615 366.333 431.631 373.988 435.999Z" stroke="#18AD00" stroke-width="0.3"/>
<path d="M263.527 443.197C261.652 435.685 258.133 431.941 253.252 426.396C257.157 431.869 259.289 438.253 263.527 443.197Z" stroke="black" stroke-width="0.3"/>
<path d="M135.085 472.009C136.318 473.257 136.6 475.633 137.654 476.809C159.155 492.674 181.889 507.842 204.444 522.411C207.989 524.691 210.994 527.787 214.719 529.611C215.721 530.115 217.288 529.611 217.288 529.611C221.45 523.395 239.355 520.274 240.408 512.81C228.874 498.338 218.47 482.641 204.444 469.609C221.244 477.985 234.808 494.954 248.114 508.01C253.201 509.114 256.104 505.418 260.959 505.61C262.32 502.538 258.467 501.146 258.39 498.41C258.39 498.41 258.904 496.97 258.39 496.01C243.362 486.193 209.093 459.337 204.444 443.208C203.981 441.6 201.978 436.656 201.875 436.008C195.787 444.744 175.904 447.504 168.685 455.4C161.441 463.273 140.094 464.305 135.085 472.009Z" stroke="#18AD00" stroke-width="0.3"/>
<path d="M433.072 443.208C437.362 443.208 441.626 443.208 445.916 443.208C446.533 437.448 439.7 438.12 435.641 436.008C437.722 439.176 436.951 442.152 433.072 443.208Z" stroke="#74DD63" stroke-width="0.3"/>
<path d="M263.528 445.602C263.322 449.082 263.707 452.466 266.096 455.202C272.056 452.346 276.68 446.586 278.941 440.802C273.366 442.794 272.647 449.082 268.665 452.802C266.636 451.65 264.093 447.282 263.528 445.602Z" stroke="black" stroke-width="0.3"/>
<path d="M258.39 495.998C247.626 475.501 213.127 464.173 204.444 443.196C209.093 459.325 243.362 486.182 258.39 495.998Z" stroke="black" stroke-width="0.3"/>
<path d="M427.934 443.196C419.406 443.196 410.749 443.628 402.246 443.196C410.723 444.492 418.995 446.748 427.934 443.196Z" stroke="black" stroke-width="0.3"/>
<path d="M137.654 476.809C136.6 475.633 136.318 473.257 135.085 472.009C128.483 465.409 118.439 459.745 111.965 452.809C118.952 461.593 128.354 469.945 137.654 476.809Z" stroke="#18AD00" stroke-width="0.3"/>
<path d="M325.18 560.805C331.5 566.301 361.504 547.58 368.851 544.004C373.449 541.772 375.992 536.396 381.695 536.804C372.755 515.923 350.226 500.947 335.456 486.402C357.805 495.979 376.223 511.555 394.539 527.204C405.303 528.236 408.514 513.691 409.952 512.803C402.939 506.683 396.517 499.387 389.402 493.603C360.733 477.114 329.573 464.178 296.923 457.602C311.719 490.579 315.907 526.388 325.18 560.805Z" stroke="#74DD63" stroke-width="0.3"/>
<path d="M240.408 512.81C255.204 531.41 266.918 553.179 278.941 572.812C270.206 550.755 261.909 528.146 248.114 508.01C234.808 494.953 221.244 477.985 204.444 469.608C218.47 482.641 228.874 498.337 240.408 512.81Z" stroke="#18AD00" stroke-width="0.3"/>
<path d="M368.851 544.01C363.79 557.594 379.1 573.603 384.264 584.811C384.932 569.715 393.948 552.674 415.09 558.41C413.215 545.762 399.471 538.586 394.539 527.209C376.223 511.561 357.804 495.985 335.455 486.408C350.226 500.953 372.755 515.929 381.695 536.81C375.992 536.402 373.449 541.778 368.851 544.01Z" stroke="#18AD00" stroke-width="0.3"/>
<path d="M409.952 512.796C411.288 513.948 413.831 514.212 415.09 515.196C407.743 506.508 399.137 499.836 389.401 493.596C396.517 499.38 402.939 506.676 409.952 512.796Z" stroke="black" stroke-width="0.3"/>
<path d="M248.114 508.002C261.909 528.138 270.207 550.747 278.941 572.804C266.918 553.171 255.204 531.402 240.408 512.802C239.355 520.266 221.45 523.386 217.288 529.602C224.481 539.203 235.142 547.075 242.977 556.003C245.648 559.027 248.5 562.387 250.683 565.603C262.449 585.164 276.937 604.629 278.941 628.005C306.325 595.964 297.796 522.378 258.39 498.401C258.467 501.137 262.32 502.529 260.959 505.602C256.104 505.41 253.201 509.106 248.114 508.002Z" stroke="#74DD63" stroke-width="0.3"/>
<path d="M394.539 527.19C399.471 538.567 413.215 545.743 415.09 558.391C393.948 552.655 384.932 569.696 384.264 584.792C379.1 573.584 363.79 557.575 368.851 543.991C361.504 547.567 331.499 566.288 325.18 560.792C330.472 580.424 336.791 598.617 348.3 615.993C357.805 621.033 367.772 606.561 375.786 605.673C383.776 604.761 398.392 586.736 404.815 589.592C403.787 583.4 404.917 574.808 412.521 572.792C429.476 569.744 436.848 589.376 448.485 594.393C443.938 565.784 434.562 538.231 415.09 515.19C413.831 514.206 411.288 513.942 409.952 512.79C408.514 513.678 405.303 528.223 394.539 527.19Z" stroke="#74DD63" stroke-width="0.3"/>
<path d="M222.426 539.19C219.651 536.478 217.417 532.11 214.719 529.59C210.994 527.766 207.989 524.67 204.444 522.39C210.429 527.07 216.183 534.198 222.426 539.19Z" stroke="black" stroke-width="0.3"/>
<path d="M222.426 539.189C226.228 542.213 229.336 545.117 232.701 548.789C235.578 551.382 240.279 553.47 242.977 555.99C235.142 547.061 224.481 539.189 217.288 529.589C217.288 529.589 215.721 530.093 214.719 529.589C217.417 532.109 219.652 536.477 222.426 539.189Z" stroke="#18AD00" stroke-width="0.3"/>
<path d="M250.683 565.602C248.5 562.386 245.648 559.026 242.977 556.002C240.279 553.482 235.578 551.394 232.701 548.802C237.788 554.37 246.008 559.89 250.683 565.602Z" stroke="black" stroke-width="0.3"/>
<path d="M404.815 589.607C405.303 592.583 406.69 592.511 407.383 594.407C406.895 588.935 405.637 575.687 412.521 572.807C404.917 574.823 403.787 583.415 404.815 589.607Z" stroke="#052200" stroke-width="0.3"/>
<path d="M348.3 616.016C351.639 621.032 354.516 625.616 358.575 630.416C363.816 635.72 371.008 642.441 376.557 647.217C396.106 661.641 418.198 670.33 443.347 671.218C459.351 671.794 476.177 672.13 492.156 671.218C496.163 670.402 502.868 673.018 505 668.818C483.088 669.01 461.432 663.273 443.347 652.017C436.412 647.697 430.092 641.385 425.365 635.216C415.501 622.304 412.624 608.792 407.383 594.415C406.69 592.519 405.303 592.591 404.815 589.615C398.392 586.759 383.776 604.784 375.787 605.696C367.772 606.584 357.805 621.056 348.3 616.016Z" stroke="#74DD63" stroke-width="0.3"/>
<path d="M376.557 647.209C371.008 642.433 363.816 635.712 358.575 630.408C363.816 636.624 369.775 642.217 376.557 647.209Z" stroke="black" stroke-width="0.3"/>
<path d="M443.347 652.014C438.287 648.318 429.655 639.99 425.365 635.214C430.092 641.382 436.411 647.694 443.347 652.014Z" stroke="black" stroke-width="0.3"/>
<path d="M492.156 671.208C476.177 672.12 459.351 671.784 443.347 671.208C458.606 673.248 476.665 673.92 492.156 671.208Z" stroke="#18AD00" stroke-width="0.3"/>
<path d="M1.50427 23.186C0.451044 30.0022 1.35014 37.8985 1.50427 44.7867C2.68595 99.6764 16.1724 156.342 24.624 210.392C25.3946 212.648 29.1195 216.224 27.1928 219.992C33.4095 216.44 41.3472 213.968 45.1748 207.992C40.294 179.839 35.9269 149.814 32.3305 121.589C28.7598 93.3642 14.6311 66.0754 22.0037 37.5385C29.3507 8.97756 80.0342 20.8819 86.2765 44.7867C31.4058 42.5066 53.7291 103.997 54.8851 141.318C56.0411 178.639 60.3311 232.569 65.7257 270.394C70.9404 259.737 97.5024 255.825 107.47 246.993C117.411 238.161 137.731 231.993 149.727 224.072C161.698 216.128 178.344 206.672 191.805 200.984C205.24 195.271 220.217 179.047 235.27 179.191C199.846 162.822 165.962 117.293 181.324 80.7878C165.346 70.7795 146.876 63.1473 132.516 51.9869C173.309 66.3634 212.561 85.156 253.252 99.9884C249.373 94.6123 258.313 91.6362 263.528 90.3881C265.634 85.564 258.852 86.86 258.39 83.1879C188.157 57.4351 118.105 19.2499 45.1748 1.58533C39.138 0.841306 30.6608 0.769304 24.624 1.58533C10.8549 5.06544 5.22912 10.3696 1.50427 23.186Z" fill="#74DD63" stroke="black"/>
<path d="M45.1748 207.993C51.674 245.338 61.6925 284.363 65.7256 323.196C73.5349 307.116 63.4136 288.011 65.7256 270.395C60.331 232.569 56.041 178.64 54.885 141.319C53.729 103.997 31.4057 42.5075 86.2765 44.7875C80.0341 20.8828 29.3506 8.97842 22.0037 37.5393C14.6311 66.0762 28.7598 93.3651 32.3305 121.59C35.9269 149.815 40.2939 179.84 45.1748 207.993Z" fill="#18AD00" stroke="black"/>
<path d="M235.27 179.177C282.511 200.993 348.737 172.576 386.833 215.178C382.8 196.217 369.801 178.361 346.527 173.632C323.228 168.928 294.148 167.512 268.64 164.8C243.131 162.064 231.648 156.4 211.508 138.975C191.368 121.551 200.488 96.9261 225.2 111.783C249.887 126.663 268.1 126.711 294.354 119.175C283.359 109.886 266.61 106.814 253.252 99.9742C212.562 85.1417 173.309 66.3491 132.516 51.9727C146.876 63.133 165.346 70.7652 181.324 80.7736C165.962 117.279 199.846 162.808 235.27 179.177Z" fill="#052200" stroke="black"/>
<path d="M253.252 99.9792C266.61 106.819 283.359 109.892 294.354 119.18C268.1 126.716 249.887 126.668 225.2 111.788C200.488 96.9311 191.368 121.556 211.508 138.98C231.648 156.405 243.131 162.069 268.64 164.805C294.148 167.517 323.228 168.933 346.527 173.638C369.801 178.366 382.8 196.222 386.833 215.183C348.737 172.582 282.511 200.998 235.27 179.182C220.217 179.038 205.24 195.262 191.805 200.974C178.344 206.663 161.698 216.119 149.727 224.063C137.731 231.983 117.411 238.152 107.47 246.984C97.5025 255.816 70.9405 259.728 65.7257 270.385C63.4138 288.001 73.5351 307.106 65.7257 323.186C61.6926 284.353 51.6741 245.328 45.1749 207.983C41.3473 213.959 33.4095 216.431 27.1929 219.983C29.1195 216.215 25.3947 212.639 24.624 210.383C28.9654 238.08 32.6902 267.024 37.4683 294.385C42.2464 321.746 35.4903 352.203 70.8634 359.187C78.2361 359.523 86.0968 358.947 88.8454 351.987C90.3867 340.371 85.6601 325.802 91.4143 315.986C93.5208 327.05 97.297 337.923 96.552 349.587C97.297 351.747 95.9355 354.579 96.552 356.787C113.481 349.851 129.176 339.291 145.36 330.386C147.338 298.369 183.251 277.777 214.719 291.985C229.362 290.209 241.127 273.001 255.821 270.385C252.173 263.76 243.876 260.136 240.408 253.584C233.421 249.84 218.239 247.44 224.995 243.984C233.189 239.808 242.746 242.064 250.683 243.984C295.022 254.712 315.059 291.601 325.18 330.386C326.413 332.307 329.085 334.251 327.749 337.587C341.081 335.091 350.355 323.258 363.713 320.786C364.33 326.954 369.056 331.875 371.42 337.587C390.558 325.274 419.123 323.498 438.21 337.587C436.129 310.61 400.73 315.074 381.695 306.386C382.902 297.889 395.207 295.249 402.246 291.985C402.04 288.961 396.954 290.641 397.108 287.185C381.078 281.665 358.832 279.049 346.373 267.385C333.914 255.744 328.725 234.983 349.148 225.575C369.57 216.167 380.924 246.116 389.402 257.996C394.77 261.093 400.062 248.754 402.246 244.41C408.719 226.265 405.046 202.39 394.539 186.382C389.093 179.326 375.966 169.389 368.851 164.781C349.122 154.629 327.492 150.381 304.629 150.381C291.4 150.381 277.477 149.877 266.096 147.981C248.037 147.213 229.49 141.285 217.288 128.78C239.201 139.868 264.016 138.38 289.216 138.38C300.827 137.324 313.492 136.268 325.18 138.38C338.358 140.661 352.076 140.997 363.713 147.981C361.067 107.995 294.559 96.4511 258.39 83.1787C258.852 86.8508 265.634 85.5548 263.528 90.3789C258.313 91.627 249.373 94.6031 253.252 99.9792Z" fill="#74DD63" stroke="black"/>
<path d="M289.216 138.39C301.084 138.39 313.363 137.502 325.18 138.39C313.492 136.278 300.827 137.334 289.216 138.39Z" fill="#74DD63" stroke="black"/>
<path d="M304.629 150.399C293.737 149.415 278.761 148.815 266.096 147.999C277.476 149.895 291.4 150.399 304.629 150.399Z" fill="#18AD00" stroke="black"/>
<path d="M394.539 186.4C388.656 177.423 378.432 169.743 368.851 164.799C375.966 169.407 389.093 179.343 394.539 186.4Z" fill="#74DD63" stroke="black"/>
<path d="M224.995 243.988C231.674 242.404 243.824 243.124 250.683 243.988C242.746 242.068 233.189 239.811 224.995 243.988Z" fill="#18AD00" stroke="black"/>
<path d="M392.592 256.727L389.401 258.392C396.98 258.296 398.926 248.162 400.879 242.714C398.695 247.058 397.96 259.823 392.592 256.727Z" fill="#18AD00" stroke="black"/>
<path d="M214.719 291.991C218.239 293.575 223.042 298.039 224.995 301.591C199.563 287.047 165.269 302.935 163.394 330.44C161.544 357.969 185.203 378.346 212.15 383.194C180.708 392.77 142.175 362.145 145.36 330.392C129.176 339.297 113.481 349.857 96.552 356.793C95.9355 354.585 97.297 351.753 96.552 349.593C96.2694 354.201 93.9831 362.361 93.9831 368.793C93.9831 383.074 92.9556 397.738 93.9831 411.995C95.1134 427.571 102.101 440.412 111.965 452.796C118.439 459.732 128.483 465.397 135.085 471.997C140.094 464.292 161.441 463.26 168.685 455.388C175.904 447.492 195.787 444.732 201.875 435.996C196.609 404.699 239.483 410.747 253.252 426.395C258.133 431.939 261.652 435.684 263.528 443.196C263.528 443.196 263.553 444.396 263.528 445.596C264.093 447.276 266.636 451.644 268.665 452.796C272.647 449.076 273.366 442.788 278.941 440.796C283.847 428.195 281.792 415.571 273.803 404.795C269.282 399.586 261.036 392.506 255.821 387.994C239.663 376.066 222.195 368.313 203.802 359.793C185.383 351.297 173.695 325.016 198.741 315.464C223.762 305.911 238.995 325.568 245.546 344.793C246.368 347.193 247.883 355.353 250.683 356.793C276.937 357.369 280.662 319.16 276.32 301.639C271.953 284.143 258.724 263.43 240.408 253.59C243.876 260.142 252.173 263.766 255.821 270.39C241.127 273.006 229.362 290.215 214.719 291.991Z" fill="#74DD63" stroke="black"/>
<path d="M145.36 330.396C142.175 362.149 180.708 392.773 212.15 383.197C185.203 378.349 161.544 357.972 163.394 330.444C165.269 302.939 199.563 287.05 224.995 301.595C223.042 298.042 218.239 293.578 214.719 291.994C183.251 277.786 147.338 298.378 145.36 330.396Z" fill="#74DD63" stroke="black"/>
<path d="M325.18 330.409C332.681 359.162 335.378 391.443 353.437 416.812C357.188 421.3 364.817 424.708 368.851 428.812C368.953 426.82 371.651 426.22 371.419 424.012C370.649 416.188 357.419 410.308 357.753 400.78C358.061 391.251 353.309 379.995 361.144 371.211C366.359 384.123 368.619 400.348 379.126 412.012C388.451 419.452 396.671 414.916 394.539 404.812C393.126 402.412 392.69 397.875 391.97 395.211C388.194 386.331 386.396 383.211 389.401 373.611C395.721 336.074 442.474 357.266 443.347 385.611C464.284 372.267 463.205 339.314 451.054 320.809C446.764 315.265 436.052 305.953 430.503 301.608C420.279 294.768 408.591 291.168 397.108 287.208C396.954 290.664 402.04 288.984 402.246 292.008C395.207 295.272 382.902 297.912 381.695 306.409C400.73 315.097 436.129 310.633 438.21 337.61C419.123 323.521 390.557 325.297 371.419 337.61C369.056 331.897 364.329 326.977 363.713 320.809C350.355 323.281 341.081 335.114 327.749 337.61C329.085 334.273 326.413 332.329 325.18 330.409Z" fill="#74DD63" stroke="black"/>
<path d="M451.054 320.796C446.353 313.62 437.902 306.54 430.503 301.596C436.052 305.94 446.764 315.252 451.054 320.796Z" fill="black" stroke="black"/>
<path d="M250.683 356.79C247.883 355.35 246.368 347.19 245.546 344.79C247.601 353.91 242.669 356.622 250.683 356.79Z" fill="#052200" stroke="black"/>
<path d="M70.8633 359.195C79.3406 360.875 85.8911 363.011 88.8453 351.995C86.0966 358.955 78.2359 359.531 70.8633 359.195Z" fill="#18AD00" stroke="black"/>
<path d="M93.9832 411.996C92.9556 397.74 93.9832 383.075 93.9832 368.795C92.5703 382.331 91.3373 398.148 93.9832 411.996Z" fill="#74DD63" stroke="black"/>
<path d="M371.419 424.01C378.175 429.338 388.348 431.618 397.108 431.21C392.664 423.746 383.416 419.402 379.126 412.009C368.619 400.345 366.359 384.12 361.144 371.208C353.309 379.992 358.061 391.249 357.753 400.777C357.419 410.305 370.649 416.185 371.419 424.01Z" fill="#18AD00" stroke="black"/>
<path d="M391.97 395.184C390.069 388.223 388.271 381.215 389.401 373.583C386.396 383.183 388.194 386.303 391.97 395.184Z" fill="#74DD63" stroke="black"/>
<path d="M273.803 404.808C269.025 398.352 262.474 392.928 255.821 388.008C261.036 392.52 269.282 399.6 273.803 404.808Z" fill="#18AD00" stroke="black"/>
<path d="M379.126 411.99C383.416 419.382 392.664 423.727 397.108 431.191C388.348 431.599 378.176 429.319 371.419 423.991C371.651 426.199 368.953 426.799 368.851 428.791C370.674 430.639 372.113 434.455 373.988 435.991C383.031 441.175 391.713 442.663 402.246 443.191C410.749 443.623 419.406 443.191 427.934 443.191C429.219 443.191 431.788 443.071 433.072 443.191C436.951 442.135 437.722 439.159 435.641 435.991C430.015 433.063 422.899 431.575 417.659 428.791C411.031 425.263 403.479 417.966 399.677 411.99C398.367 409.902 395.669 406.71 394.539 404.79C396.671 414.894 388.451 419.431 379.126 411.99Z" fill="#74DD63" stroke="black"/>
<path d="M417.659 428.809C413.42 426.145 402.811 416.041 399.677 412.009C403.479 417.985 411.031 425.281 417.659 428.809Z" fill="black" stroke="black"/>
<path d="M373.988 435.999C372.113 434.463 370.675 430.647 368.851 428.799C364.818 424.695 357.188 421.287 353.438 416.799C358.293 423.615 366.333 431.631 373.988 435.999Z" fill="#18AD00" stroke="black"/>
<path d="M263.527 443.197C261.652 435.685 258.133 431.941 253.252 426.396C257.157 431.869 259.289 438.253 263.527 443.197Z" fill="black" stroke="black"/>
<path d="M135.085 472.009C136.318 473.257 136.6 475.633 137.654 476.809C159.155 492.674 181.889 507.842 204.444 522.411C207.989 524.691 210.994 527.787 214.719 529.611C215.721 530.115 217.288 529.611 217.288 529.611C221.45 523.395 239.355 520.274 240.408 512.81C228.874 498.338 218.47 482.641 204.444 469.609C221.244 477.985 234.808 494.954 248.114 508.01C253.201 509.114 256.104 505.418 260.959 505.61C262.32 502.538 258.467 501.146 258.39 498.41C258.39 498.41 258.904 496.97 258.39 496.01C243.362 486.193 209.093 459.337 204.444 443.208C203.981 441.6 201.978 436.656 201.875 436.008C195.787 444.744 175.904 447.504 168.685 455.4C161.441 463.273 140.094 464.305 135.085 472.009Z" fill="#18AD00" stroke="black"/>
<path d="M433.072 443.208C437.362 443.208 441.626 443.208 445.916 443.208C446.533 437.448 439.7 438.12 435.641 436.008C437.722 439.176 436.951 442.152 433.072 443.208Z" fill="#74DD63" stroke="black"/>
<path d="M263.528 445.602C263.322 449.082 263.707 452.466 266.096 455.202C272.056 452.346 276.68 446.586 278.941 440.802C273.366 442.794 272.647 449.082 268.665 452.802C266.636 451.65 264.093 447.282 263.528 445.602Z" fill="black" stroke="black"/>
<path d="M258.39 495.998C247.626 475.501 213.127 464.173 204.444 443.196C209.093 459.325 243.362 486.182 258.39 495.998Z" fill="black" stroke="black"/>
<path d="M427.934 443.196C419.406 443.196 410.749 443.628 402.246 443.196C410.723 444.492 418.995 446.748 427.934 443.196Z" fill="black" stroke="black"/>
<path d="M137.654 476.809C136.6 475.633 136.318 473.257 135.085 472.009C128.483 465.409 118.439 459.745 111.965 452.809C118.952 461.593 128.354 469.945 137.654 476.809Z" fill="#18AD00" stroke="black"/>
<path d="M325.18 560.805C331.5 566.301 361.504 547.58 368.851 544.004C373.449 541.772 375.992 536.396 381.695 536.804C372.755 515.923 350.226 500.947 335.456 486.402C357.805 495.979 376.223 511.555 394.539 527.204C405.303 528.236 408.514 513.691 409.952 512.803C402.939 506.683 396.517 499.387 389.402 493.603C360.733 477.114 329.573 464.178 296.923 457.602C311.719 490.579 315.907 526.388 325.18 560.805Z" fill="#74DD63" stroke="black"/>
<path d="M240.408 512.81C255.204 531.41 266.918 553.179 278.941 572.812C270.206 550.755 261.909 528.146 248.114 508.01C234.808 494.953 221.244 477.985 204.444 469.608C218.47 482.641 228.874 498.337 240.408 512.81Z" fill="#18AD00" stroke="black"/>
<path d="M368.851 544.01C363.79 557.594 379.1 573.603 384.264 584.811C384.932 569.715 393.948 552.674 415.09 558.41C413.215 545.762 399.471 538.586 394.539 527.209C376.223 511.561 357.804 495.985 335.455 486.408C350.226 500.953 372.755 515.929 381.695 536.81C375.992 536.402 373.449 541.778 368.851 544.01Z" fill="#18AD00" stroke="black"/>
<path d="M409.952 512.796C411.288 513.948 413.831 514.212 415.09 515.196C407.743 506.508 399.137 499.836 389.401 493.596C396.517 499.38 402.939 506.676 409.952 512.796Z" fill="black" stroke="black"/>
<path d="M248.114 508.002C261.909 528.138 270.207 550.747 278.941 572.804C266.918 553.171 255.204 531.402 240.408 512.802C239.355 520.266 221.45 523.386 217.288 529.602C224.481 539.203 235.142 547.075 242.977 556.003C245.648 559.027 248.5 562.387 250.683 565.603C262.449 585.164 276.937 604.629 278.941 628.005C306.325 595.964 297.796 522.378 258.39 498.401C258.467 501.137 262.32 502.529 260.959 505.602C256.104 505.41 253.201 509.106 248.114 508.002Z" fill="#74DD63" stroke="black"/>
<path d="M394.539 527.19C399.471 538.567 413.215 545.743 415.09 558.391C393.948 552.655 384.932 569.696 384.264 584.792C379.1 573.584 363.79 557.575 368.851 543.991C361.504 547.567 331.499 566.288 325.18 560.792C330.472 580.424 336.791 598.617 348.3 615.993C357.805 621.033 367.772 606.561 375.786 605.673C383.776 604.761 398.392 586.736 404.815 589.592C403.787 583.4 404.917 574.808 412.521 572.792C429.476 569.744 436.848 589.376 448.485 594.393C443.938 565.784 434.562 538.231 415.09 515.19C413.831 514.206 411.288 513.942 409.952 512.79C408.514 513.678 405.303 528.223 394.539 527.19Z" fill="#74DD63" stroke="black"/>
<path d="M222.426 539.19C219.651 536.478 217.417 532.11 214.719 529.59C210.994 527.766 207.989 524.67 204.444 522.39C210.429 527.07 216.183 534.198 222.426 539.19Z" fill="black" stroke="black"/>
<path d="M222.426 539.189C226.228 542.213 229.336 545.117 232.701 548.789C235.578 551.382 240.279 553.47 242.977 555.99C235.142 547.061 224.481 539.189 217.288 529.589C217.288 529.589 215.721 530.093 214.719 529.589C217.417 532.109 219.652 536.477 222.426 539.189Z" fill="#18AD00" stroke="black"/>
<path d="M250.683 565.602C248.5 562.386 245.648 559.026 242.977 556.002C240.279 553.482 235.578 551.394 232.701 548.802C237.788 554.37 246.008 559.89 250.683 565.602Z" fill="black" stroke="black"/>
<path d="M404.815 589.607C405.303 592.583 406.69 592.511 407.383 594.407C406.895 588.935 405.637 575.687 412.521 572.807C404.917 574.823 403.787 583.415 404.815 589.607Z" fill="#052200" stroke="black"/>
<path d="M348.3 616.016C351.639 621.032 354.516 625.616 358.575 630.416C363.816 635.72 371.008 642.441 376.557 647.217C396.106 661.641 418.198 670.33 443.347 671.218C459.351 671.794 476.177 672.13 492.156 671.218C496.163 670.402 502.868 673.018 505 668.818C483.088 669.01 461.432 663.273 443.347 652.017C436.412 647.697 430.092 641.385 425.365 635.216C415.501 622.304 412.624 608.792 407.383 594.415C406.69 592.519 405.303 592.591 404.815 589.615C398.392 586.759 383.776 604.784 375.787 605.696C367.772 606.584 357.805 621.056 348.3 616.016Z" fill="#74DD63" stroke="black"/>
<path d="M376.557 647.209C371.008 642.433 363.816 635.712 358.575 630.408C363.816 636.624 369.775 642.217 376.557 647.209Z" fill="black" stroke="black"/>
<path d="M443.347 652.014C438.287 648.318 429.655 639.99 425.365 635.214C430.092 641.382 436.411 647.694 443.347 652.014Z" fill="black" stroke="black"/>
<path d="M492.156 671.208C476.177 672.12 459.351 671.784 443.347 671.208C458.606 673.248 476.665 673.92 492.156 671.208Z" fill="#18AD00" stroke="black"/>
</svg>
